<svg width="107" height="107" viewBox="0 0 107 107" fill="none" xmlns="http://www.w3.org/2000/svg">
<rect width="107" height="107" fill="white"/>
<path d="M68.5 26.5H38.5C36.9092 26.5017 35.3841 27.1344 34.2593 28.2593C33.1344 29.3841 32.5017 30.9092 32.5 32.5V56.5C32.5017 58.0908 33.1344 59.6159 34.2593 60.7407C35.3841 61.8656 36.9092 62.4983 38.5 62.5H68.5C70.0908 62.4983 71.6159 61.8656 72.7407 60.7407C73.8656 59.6159 74.4983 58.0908 74.5 56.5V32.5C74.4983 30.9092 73.8656 29.3841 72.7407 28.2593C71.6159 27.1344 70.0908 26.5017 68.5 26.5ZM61 32.5C61.89 32.5 62.76 32.7639 63.5001 33.2584C64.2401 33.7529 64.8169 34.4557 65.1575 35.2779C65.4981 36.1002 65.5872 37.005 65.4135 37.8779C65.2399 38.7508 64.8113 39.5526 64.182 40.182C63.5526 40.8113 62.7508 41.2399 61.8779 41.4135C61.005 41.5872 60.1002 41.4981 59.2779 41.1575C58.4557 40.8169 57.7529 40.2401 57.2584 39.5001C56.7639 38.76 56.5 37.89 56.5 37C56.5012 35.8069 56.9757 34.663 57.8194 33.8194C58.663 32.9757 59.8069 32.5012 61 32.5ZM38.5 59.5C37.7044 59.5 36.9413 59.1839 36.3787 58.6213C35.8161 58.0587 35.5 57.2956 35.5 56.5V50.1597L44.3912 42.2566C45.2491 41.4957 46.3648 41.0906 47.5109 41.1237C48.6571 41.1568 49.7475 41.6256 50.56 42.4347L56.6491 48.5106L45.6597 59.5H38.5ZM71.5 56.5C71.5 57.2956 71.1839 58.0587 70.6213 58.6213C70.0587 59.1839 69.2956 59.5 68.5 59.5H49.9028L61.2859 48.1169C62.0919 47.4315 63.1146 47.0539 64.1726 47.0512C65.2305 47.0484 66.2552 47.4207 67.0647 48.1019L71.5 51.7975V56.5Z" fill="#111111" fill-opacity="0.25"/>
<path d="M25.64 72.1H27.296V80.5H26.036L22.436 75.364V80.5H20.78V72.1H22.04L25.64 77.224V72.1ZM35.9222 79.408C35.0742 80.248 34.0422 80.668 32.8262 80.668C31.6102 80.668 30.5782 80.248 29.7302 79.408C28.8902 78.56 28.4702 77.524 28.4702 76.3C28.4702 75.076 28.8902 74.044 29.7302 73.204C30.5782 72.356 31.6102 71.932 32.8262 71.932C34.0422 71.932 35.0742 72.356 35.9222 73.204C36.7702 74.044 37.1942 75.076 37.1942 76.3C37.1942 77.524 36.7702 78.56 35.9222 79.408ZM30.8942 78.28C31.4142 78.792 32.0582 79.048 32.8262 79.048C33.5942 79.048 34.2382 78.792 34.7582 78.28C35.2782 77.76 35.5382 77.1 35.5382 76.3C35.5382 75.5 35.2782 74.84 34.7582 74.32C34.2382 73.8 33.5942 73.54 32.8262 73.54C32.0582 73.54 31.4142 73.8 30.8942 74.32C30.3742 74.84 30.1142 75.5 30.1142 76.3C30.1142 77.1 30.3742 77.76 30.8942 78.28ZM43.4337 72.1V73.684H41.1657V80.5H39.5097V73.684H37.2537V72.1H43.4337ZM52.3741 73.684H49.0141V75.676H52.2781V77.26H49.0141V80.5H47.3581V72.1H52.3741V73.684ZM60.6488 79.408C59.8008 80.248 58.7688 80.668 57.5528 80.668C56.3368 80.668 55.3048 80.248 54.4568 79.408C53.6168 78.56 53.1968 77.524 53.1968 76.3C53.1968 75.076 53.6168 74.044 54.4568 73.204C55.3048 72.356 56.3368 71.932 57.5528 71.932C58.7688 71.932 59.8008 72.356 60.6488 73.204C61.4968 74.044 61.9208 75.076 61.9208 76.3C61.9208 77.524 61.4968 78.56 60.6488 79.408ZM55.6208 78.28C56.1408 78.792 56.7848 79.048 57.5528 79.048C58.3208 79.048 58.9648 78.792 59.4848 78.28C60.0048 77.76 60.2648 77.1 60.2648 76.3C60.2648 75.5 60.0048 74.84 59.4848 74.32C58.9648 73.8 58.3208 73.54 57.5528 73.54C56.7848 73.54 56.1408 73.8 55.6208 74.32C55.1008 74.84 54.8408 75.5 54.8408 76.3C54.8408 77.1 55.1008 77.76 55.6208 78.28ZM66.1581 80.668C65.2221 80.668 64.4541 80.404 63.8541 79.876C63.2541 79.348 62.9541 78.64 62.9541 77.752V72.1H64.5981V77.62C64.5981 78.06 64.7221 78.408 64.9701 78.664C65.2261 78.92 65.6221 79.048 66.1581 79.048C66.6941 79.048 67.0861 78.92 67.3341 78.664C67.5901 78.408 67.7181 78.06 67.7181 77.62V72.1H69.3741V77.752C69.3741 78.64 69.0741 79.348 68.4741 79.876C67.8741 80.404 67.1021 80.668 66.1581 80.668ZM75.7259 72.1H77.3819V80.5H76.1219L72.5219 75.364V80.5H70.8659V72.1H72.1259L75.7259 77.224V72.1ZM82.2762 72.1C83.4282 72.1 84.3882 72.504 85.1562 73.312C85.9322 74.12 86.3202 75.116 86.3202 76.3C86.3202 77.484 85.9322 78.48 85.1562 79.288C84.3882 80.096 83.4282 80.5 82.2762 80.5H78.9402V72.1H82.2762ZM82.2762 78.916C83.0042 78.916 83.5962 78.676 84.0522 78.196C84.5082 77.708 84.7362 77.076 84.7362 76.3C84.7362 75.524 84.5082 74.896 84.0522 74.416C83.5962 73.928 83.0042 73.684 82.2762 73.684H80.5962V78.916H82.2762Z" fill="#111111" fill-opacity="0.25"/>
</svg>
